<?xml version="1.0" standalone="no"?>
<!DOCTYPE svg PUBLIC "-//W3C//DTD SVG 20010904//EN"
 "http://www.w3.org/TR/2001/REC-SVG-20010904/DTD/svg10.dtd">
<svg version="1.0" xmlns="http://www.w3.org/2000/svg"
 width="783.000000pt" height="783.000000pt" viewBox="0 0 783.000000 783.000000"
 preserveAspectRatio="xMidYMid meet">
<metadata>
Created by potrace 1.11, written by Peter Selinger 2001-2013
</metadata>
<g transform="translate(0.000000,783.000000) scale(0.100000,-0.100000)"
fill="#000000" stroke="none">
<path d="M3745 7079 c-117 -16 -144 -21 -220 -40 -44 -11 -88 -24 -97 -30 -10
-5 -23 -9 -30 -9 -19 0 -238 -111 -238 -121 0 -5 -5 -9 -12 -9 -30 0 -230
-174 -324 -281 -33 -38 -104 -145 -104 -158 0 -6 -3 -11 -8 -11 -4 0 -12 -12
-18 -27 -12 -29 -26 -64 -29 -73 -1 -3 -5 -12 -8 -20 -10 -23 -34 -101 -42
-135 -17 -75 -18 -78 -30 -150 -3 -22 -12 -67 -19 -100 l-12 -60 -59 5 c-33 2
-125 4 -205 4 -125 -1 -156 -4 -227 -26 -140 -42 -186 -78 -424 -324 -112
-115 -194 -192 -230 -216 -15 -9 -32 -23 -40 -30 -22 -20 -126 -68 -178 -82
-38 -10 -95 -11 -191 -5 -8 1 -42 7 -75 15 -33 7 -78 16 -100 20 -22 3 -43 8
-47 11 -5 2 -27 6 -50 9 -24 3 -54 7 -68 10 -32 5 -208 6 -236 0 -12 -2 -39
-7 -60 -10 -47 -8 -172 -43 -196 -57 -10 -5 -25 -9 -33 -9 -8 0 -15 -2 -15 -4
0 -2 32 -50 71 -107 90 -133 125 -209 145 -314 2 -11 6 -31 8 -45 7 -35 17
-100 21 -130 1 -14 5 -45 9 -70 3 -25 8 -65 11 -90 15 -130 26 -196 41 -257 8
-32 17 -69 20 -82 10 -46 73 -207 105 -266 111 -212 231 -367 444 -578 78 -77
224 -197 253 -208 5 -2 12 -58 16 -124 7 -120 10 -145 20 -199 17 -89 29 -143
36 -161 5 -11 12 -31 16 -45 17 -64 116 -249 144 -270 4 -3 11 -12 16 -21 17
-30 78 -102 144 -169 157 -157 446 -317 624 -344 21 -4 42 -8 46 -11 27 -17
399 -26 512 -13 l46 6 72 -142 c98 -192 148 -265 260 -377 146 -147 339 -269
519 -329 199 -67 415 -89 644 -66 297 29 653 194 833 386 62 66 85 95 142 180
57 85 192 343 192 368 0 15 43 12 118 -7 20 -5 44 -9 52 -9 8 0 27 -3 42 -6
62 -14 100 -17 263 -20 218 -5 353 13 530 71 226 74 453 213 623 381 81 79
162 180 162 200 0 7 4 12 9 12 5 0 11 8 15 18 3 9 19 42 35 72 16 30 28 57 25
61 -2 4 0 9 5 11 12 4 79 192 97 273 57 258 62 408 19 590 -14 61 -28 119 -30
130 -12 54 -58 172 -110 282 l-57 121 56 66 c30 36 68 85 83 108 15 24 31 45
34 48 9 7 114 209 122 235 3 11 13 38 22 60 22 58 56 192 63 250 13 104 5 387
-13 475 -3 14 -7 39 -9 56 -14 101 -73 296 -122 402 -13 28 -23 53 -22 55 0 1
-20 35 -45 75 -26 40 -47 75 -47 78 0 2 -4 10 -10 17 -5 7 -40 50 -78 97 -67
84 -139 160 -218 230 -51 46 -158 125 -163 121 -2 -1 -7 2 -10 7 -11 18 -128
81 -216 117 -133 53 -262 76 -440 78 -138 1 -276 -7 -293 -17 -4 -2 -27 -7
-52 -10 -74 -10 -299 -78 -385 -117 -20 -9 -76 -31 -85 -34 -3 -1 -39 -17 -80
-37 l-74 -36 -70 102 c-170 248 -275 368 -401 461 -80 59 -188 125 -203 125
-6 0 -12 4 -14 8 -1 5 -43 28 -93 51 -49 23 -99 47 -110 52 -12 6 -27 11 -35
13 -8 1 -45 12 -82 24 -36 11 -92 26 -125 31 -32 6 -69 14 -83 17 -38 9 -328
11 -385 3z"/>
</g>
</svg>
